<?xml version="1.0" encoding="UTF-8"?><svg id="a" xmlns="http://www.w3.org/2000/svg" viewBox="0 0 696 696"><defs><style>.b{fill:#fff;}</style></defs><path class="b" d="M305.87,56.45h28.64V28.64h26.97v55.61h27.81v27.81h27.81v27.81h56.45v-28.64h-27.81V56.45h27.81V27.81h-27.81V0h-112.06V27.81h-26.97V0h-28.64V28.64h27.81v27.81Zm84.25,26.97v-26.97h26.97v26.97h-26.97Z"/><polygon class="b" points="389.29 194.65 389.29 195.48 389.29 223.29 417.93 223.29 417.93 195.48 417.93 194.65 417.93 166.84 389.29 166.84 389.29 194.65"/><polygon class="b" points="444.91 194.65 444.91 195.48 444.91 223.29 473.55 223.29 473.55 195.48 473.55 194.65 473.55 166.84 444.91 166.84 444.91 194.65"/><path class="b" d="M251.09,223.29h55.61v-84.25h-27.81v-26.97h54.78v111.23h28.64V111.23h-27.81v-27.81h-56.45v27.81h-26.97V55.61h-28.64V223.29h28.64Zm0-56.45v-26.97h26.97v54.78h-26.97v-27.81Z"/><path class="b" d="M27.81,278.07v28.64h55.61v27.81h28.64v-27.81h27.81v-55.61h55.61v-28.64H55.61v27.81H28.64v-27.81H0v28.64H27.81v26.97Zm83.42-26.97v54.78h-26.97v-54.78h26.97Z"/><rect class="b" x="583.94" y="278.07" width="28.64" height="28.64"/><path class="b" d="M668.19,278.07v-27.81h-27.81v-27.81h-139.87v28.64h27.81v54.78h-26.97v-27.81h-28.64v27.81h-26.97v-55.61h-112.06v27.81h-54.78v-27.81h-56.45v55.61h-26.97v-27.81h-28.64v28.64h27.81v26.97h-27.81v28.64h55.61v139.03h56.45v-27.81h54.78v27.81h27.81v26.97h-27.81v56.45h28.64v-27.81h26.97v27.81h27.81v27.81h27.81v26.97h-55.61v28.64h27.81v27.81h28.64v-27.81h26.97v27.81h28.64v-27.81h26.97v27.81h167.67v-112.06h-27.81v-54.78h27.81v-28.64h-55.61v-55.61h-27.81v-82.59h26.97v55.61h27.81v27.81h28.64v-56.45h-27.81v-26.97h27.81v-84.25h-27.81Zm-28.64,278.07h-26.97v-26.97h26.97v26.97Zm-27.81,56.45v26.97h-54.78v-26.97h27.81v-27.81h26.97v27.81Zm-138.2-305.87h26.97v26.97h-26.97v-26.97Zm82.59,305.04h-26.97v-26.97h26.97v26.97Zm-83.42-166.84h-26.97v-26.97h54.78v26.97h-27.81Zm28.64-82.59h26.97v27.81h27.81v26.97h-54.78v-27.81h-27.81v-26.97h27.81Zm-111.23-55.61h26.97v26.97h-26.97v-26.97Zm83.42,221.62v-54.78h82.59v82.59h-82.59v-27.81Zm111.23-55.61v-26.97h26.97v26.97h-26.97Zm-27.81-83.42v-26.97h26.97v26.97h-26.97Zm-195.48-83.42h-26.97v-26.97h26.97v26.97Zm-55.61,.83h27.81v26.97h-54.78v-26.97h26.97Zm-55.61,54.78h-26.97v-54.78h26.97v27.81h27.81v26.97h-27.81Zm.83,84.25h26.97v26.97h-26.97v-26.97Zm27.81-.83v-27.81h-27.81v-26.97h54.78v54.78h-26.97Zm55.61,27.81v-54.78h27.81v-28.64h-55.61v-26.97h55.61v-27.81h26.97v27.81h55.61v26.97h-27.81v27.81h-27.81v28.64h27.81v26.97h-82.59Zm55.61,83.42v-26.97h27.81v-27.81h26.97v54.78h-54.78Zm110.39,83.42v27.81h-26.97v-54.78h54.78v26.97h-27.81Zm166.84-26.97v54.78h-54.78v-26.97h27.81v-55.61h26.97v27.81Zm-55.61-278.9v27.81h-26.97v-27.81h-27.81v-82.59h82.59v55.61h27.81v26.97h-55.61Z"/><path class="b" d="M166.84,389.29H56.45v-27.81H28.64v-27.81H0v139.87H28.64v-83.42h26.97v83.42h56.45v-27.81h26.97v27.81h56.45v-28.64h-27.81v-26.97h27.81v-28.64h-28.64Zm-82.59,28.64h26.97v26.97h-26.97v-26.97Z"/><rect class="b" x="500.52" y="500.52" width="28.64" height="28.64"/><polygon class="b" points="333.68 611.75 306.71 611.75 306.71 584.77 306.71 583.94 306.71 556.13 278.9 556.13 278.07 556.13 251.09 556.13 251.09 528.33 222.45 528.33 222.45 556.13 222.45 556.97 222.45 583.94 222.45 584.77 222.45 611.75 222.45 612.58 222.45 640.39 250.26 640.39 250.26 667.36 222.45 667.36 222.45 696 250.26 696 251.09 696 278.9 696 278.9 668.19 278.9 667.36 278.9 640.39 305.87 640.39 305.87 667.36 305.87 668.19 305.87 696 334.51 696 334.51 668.19 334.51 667.36 334.51 640.39 362.32 640.39 362.32 611.75 334.51 611.75 333.68 611.75"/><path class="b" d="M194.65,0H0V194.65H194.65V0Zm-27.81,166.84H27.81V27.81H166.84V166.84Z"/><path class="b" d="M695.17,0h-194.65V194.65h194.65V0Zm-27.81,166.84h-139.03V27.81h139.03V166.84Z"/><path class="b" d="M0,695.17H194.65v-194.65H0v194.65Zm27.81-166.84H166.84v139.03H27.81v-139.03Z"/><rect class="b" x="55.61" y="55.61" width="83.42" height="83.42"/><rect class="b" x="556.13" y="55.61" width="83.42" height="83.42"/><rect class="b" x="55.61" y="556.13" width="83.42" height="83.42"/></svg>