<?xml version="1.0" standalone="no"?>
<!DOCTYPE svg PUBLIC "-//W3C//DTD SVG 20010904//EN"
 "http://www.w3.org/TR/2001/REC-SVG-20010904/DTD/svg10.dtd">
<svg version="1.0" xmlns="http://www.w3.org/2000/svg"
 width="500.000000pt" height="500.000000pt" viewBox="0 0 500.000000 500.000000"
 preserveAspectRatio="xMidYMid meet">
<metadata>
Created by potrace 1.14, written by Peter Selinger 2001-2017
</metadata>
<g transform="translate(0.000000,500.000000) scale(0.100000,-0.100000)"
fill="#000000" stroke="none">
<path d="M2101 4990 c-118 -5 -125 -6 -143 -31 -18 -24 -18 -30 -4 -140 34
-256 57 -396 100 -614 34 -172 63 -231 99 -208 6 4 63 9 125 9 62 1 116 5 120
8 3 4 7 57 9 119 1 62 12 273 24 470 18 305 20 361 8 372 -17 16 -168 23 -338
15z"/>
<path d="M611 3992 c-33 -30 -66 -143 -97 -337 -92 -563 -94 -583 -101 -1010
l-6 -380 -29 -57 c-43 -88 -92 -232 -122 -363 -47 -206 -46 -713 1 -935 43
-201 132 -404 195 -444 36 -22 41 4 44 217 3 254 29 434 99 672 42 145 44 144
44 -43 1 -252 18 -378 76 -562 76 -240 94 -281 178 -415 108 -170 226 -291
279 -283 22 3 23 7 23 91 0 48 3 87 6 87 3 0 31 -18 63 -40 101 -71 297 -150
371 -150 18 0 56 -5 85 -12 42 -10 53 -9 65 3 13 13 12 20 -10 61 -14 26 -25
51 -25 56 0 10 435 24 498 15 32 -4 42 -10 42 -24 0 -36 36 -43 220 -40 154 2
250 9 300 22 8 2 17 13 20 24 6 19 16 20 274 23 l267 2 -6 -22 c-4 -13 -14
-30 -21 -39 -20 -23 -17 -73 6 -94 15 -13 28 -16 57 -10 64 12 206 103 329
212 l71 63 7 -83 c11 -136 40 -139 137 -14 150 191 184 261 260 527 11 41 30
104 40 140 11 36 24 79 29 95 25 86 62 409 54 468 -8 57 -1 59 63 13 61 -43
102 -64 172 -86 175 -57 367 -53 400 8 10 20 6 51 -8 53 -3 0 -31 2 -61 3 -32
2 -72 12 -96 24 -58 29 -190 130 -251 190 -46 47 -173 212 -173 226 0 3 -9 25
-19 49 -46 100 -71 168 -71 195 0 15 -5 33 -11 39 -7 7 -9 31 -5 65 6 56 7 76
5 106 -1 9 3 82 10 162 26 329 29 502 16 746 -8 131 -17 262 -20 289 -3 28 -8
86 -11 130 -10 147 -46 284 -77 286 -61 5 -254 -17 -382 -43 -96 -19 -453
-110 -505 -128 -14 -4 -74 -23 -135 -40 -60 -18 -146 -46 -190 -62 -44 -17
-105 -40 -135 -51 -30 -11 -84 -34 -119 -50 -64 -29 -65 -29 -155 -17 -218 28
-278 32 -393 27 -67 -3 -130 -10 -140 -15 -14 -8 -38 0 -103 32 -74 36 -175
81 -325 146 -129 56 -557 205 -670 234 -237 60 -308 71 -334 48z m227 -92
c127 -30 367 -105 447 -141 11 -5 43 -16 70 -25 74 -24 361 -139 430 -172 33
-16 77 -37 98 -47 21 -10 35 -21 30 -25 -4 -4 -57 -24 -116 -44 -153 -52 -263
-107 -412 -204 -413 -270 -374 -240 -590 -458 -146 -148 -217 -228 -260 -294
l-60 -90 -3 97 c-2 54 2 148 7 209 6 60 11 155 12 210 1 151 13 256 73 609 8
44 21 130 31 190 11 69 27 130 43 164 l26 53 44 -6 c24 -3 83 -15 130 -26z
m3335 -107 c38 -109 79 -747 65 -1013 -19 -343 -32 -510 -40 -510 -4 0 -8 5
-8 11 0 31 -140 292 -225 419 -189 281 -254 350 -480 501 -161 109 -325 192
-445 228 -41 13 -85 27 -97 31 -12 5 -45 12 -73 16 -27 4 -50 10 -50 14 0 14
184 85 340 132 58 17 134 39 170 50 269 80 659 164 771 167 l55 1 17 -47z
m-1638 -338 c245 -30 283 -36 364 -56 210 -52 359 -123 596 -285 120 -82 227
-182 286 -266 255 -367 309 -470 410 -785 9 -29 24 -101 49 -243 15 -86 28
-457 19 -535 -23 -192 -29 -235 -43 -301 -8 -38 -28 -113 -44 -165 -17 -52
-42 -135 -56 -186 -13 -50 -37 -118 -52 -150 -31 -66 -144 -241 -159 -247 -7
-2 -8 24 -3 83 23 257 26 296 22 301 -7 7 -33 -27 -122 -160 -69 -104 -131
-181 -226 -280 -18 -19 -61 -50 -96 -69 l-63 -33 8 28 c8 31 28 125 69 324 14
69 30 163 35 210 5 47 21 173 35 280 14 107 26 230 26 273 0 42 2 77 4 77 3 0
17 -5 32 -10 25 -10 31 -6 93 59 l66 70 60 -36 c69 -41 121 -56 147 -42 29 16
22 36 -45 122 -34 45 -76 101 -91 125 -59 87 -148 146 -232 154 l-39 3 -4 -50
c-4 -50 -23 95 -51 395 -13 137 -14 140 -39 140 -27 0 -41 -29 -41 -87 0 -26
-5 -66 -11 -88 -7 -22 -14 -62 -18 -89 l-6 -48 -75 58 c-41 31 -77 59 -78 60
-2 1 15 19 37 39 23 21 41 43 41 50 0 7 21 30 46 52 l46 39 -57 67 c-32 37
-63 67 -69 67 -6 0 -49 -38 -96 -85 -47 -47 -90 -85 -96 -85 -6 0 -17 6 -23
14 -9 11 -6 17 16 31 50 33 175 138 180 152 6 16 -103 143 -123 143 -8 0 -60
-38 -116 -85 -55 -47 -104 -85 -107 -85 -3 1 -28 30 -56 65 -35 46 -56 65 -72
65 -31 0 -37 -32 -24 -132 5 -46 12 -144 15 -218 6 -155 7 -155 -59 100 -36
139 -58 183 -92 188 -36 5 -46 -20 -33 -85 7 -32 16 -65 21 -74 10 -19 108
-398 138 -534 12 -55 28 -122 36 -150 22 -80 39 -168 36 -191 -2 -20 40 -74
58 -74 19 0 42 32 35 49 -4 9 -20 68 -35 131 -32 125 -40 261 -15 227 7 -9 18
-17 24 -17 7 0 3 -14 -8 -33 -17 -29 -18 -35 -5 -53 10 -15 22 -20 44 -16 l31
4 0 -63 c0 -87 37 -362 56 -418 23 -69 57 -106 129 -142 59 -29 71 -31 134
-27 109 8 156 45 192 149 l18 54 1 -73 c0 -82 -8 -94 -99 -150 -151 -93 -223
-129 -371 -182 -150 -54 -256 -77 -410 -89 -269 -22 -370 -15 -640 40 -193 40
-316 84 -395 144 -17 12 -44 25 -61 29 -35 8 -48 28 -64 101 -25 108 -24 114
5 60 36 -68 60 -91 121 -120 119 -56 287 -13 341 88 22 42 30 270 14 433 -10
104 -10 119 4 126 20 12 19 34 -5 68 l-20 28 22 5 c12 4 23 5 23 4 1 -1 22
-37 46 -80 57 -102 132 -187 165 -187 19 0 28 9 40 39 l15 39 47 -23 c100 -51
215 -91 300 -106 31 -5 85 -17 120 -26 62 -16 63 -16 85 5 27 28 14 56 -29 60
-52 5 -218 45 -259 62 -77 34 -233 212 -332 381 -21 37 -39 57 -44 52 -6 -6
-4 -64 6 -149 8 -76 17 -156 19 -176 2 -21 0 -38 -4 -38 -11 0 -127 193 -169
279 -17 35 -42 103 -57 150 -14 47 -32 104 -40 126 -21 59 -19 63 34 70 26 4
79 13 118 21 38 7 135 21 214 30 88 11 136 20 124 25 -31 11 -276 14 -401 4
-83 -6 -116 -5 -127 4 -8 6 -22 56 -31 109 -9 53 -19 107 -21 120 -5 26 -38
30 -62 6 -14 -15 -21 -43 -40 -179 l-7 -50 -90 -3 c-128 -4 -256 13 -277 38
-9 12 -29 20 -45 20 -40 0 -86 51 -109 120 -28 83 -26 278 4 383 48 168 185
373 302 452 110 74 295 155 480 210 25 8 65 20 90 29 59 19 344 20 495 1z
m357 -1193 c20 -33 97 -106 233 -221 55 -46 106 -93 113 -103 7 -10 67 -57
133 -104 127 -93 147 -111 108 -101 -13 3 -146 9 -294 13 -248 6 -272 5 -288
-10 -16 -16 -17 -4 -18 221 0 131 -4 259 -8 286 -9 54 -3 59 21 19z m447 -36
l23 -24 -61 -75 c-33 -41 -67 -77 -76 -81 -9 -3 -28 6 -48 24 l-32 29 75 75
c41 42 79 76 86 76 6 0 21 -11 33 -24z m-1559 -88 c13 -50 39 -132 86 -273 18
-54 31 -102 28 -105 -3 -2 -42 -7 -86 -9 l-81 -3 6 123 c11 213 19 309 28 309
5 0 13 -19 19 -42z m-111 -146 c0 -42 -4 -117 -9 -167 -5 -52 -4 -132 1 -190
6 -55 9 -145 7 -200 l-3 -100 -37 50 c-61 83 -115 195 -138 285 -12 47 -39
136 -61 199 -21 63 -39 120 -39 128 0 8 17 21 38 30 40 17 222 53 235 46 4 -2
7 -39 6 -81z m-414 -124 c3 -51 10 -118 15 -148 5 -30 14 -107 20 -170 11
-124 24 -208 46 -310 7 -36 21 -99 30 -140 9 -41 22 -102 29 -135 42 -197 148
-531 201 -637 19 -37 45 -96 58 -130 13 -35 27 -70 30 -79 15 -35 -172 13
-287 74 -68 36 -129 108 -235 278 -69 112 -98 137 -87 77 9 -52 45 -351 45
-372 0 -42 -75 50 -191 234 -73 115 -156 350 -199 564 -31 153 -28 512 6 701
7 39 110 131 197 174 84 43 297 122 308 115 4 -2 10 -46 14 -96z m82 -70 c-3
-8 -6 -5 -6 6 -1 11 2 17 5 13 3 -3 4 -12 1 -19z m23 -41 c0 -7 6 -24 14 -39
16 -29 12 -38 -16 -38 -15 0 -18 8 -18 51 0 31 4 48 10 44 6 -3 10 -12 10 -18z
m528 -44 c-27 -2 -69 -2 -95 0 -27 2 -5 3 47 3 52 0 74 -1 48 -3z m1727 -267
c-11 -125 -24 -136 -25 -21 0 55 -3 111 -6 125 l-6 25 22 -25 c20 -23 22 -32
15 -104z m1044 -4 c102 -76 101 -74 66 -68 -16 2 -55 10 -85 18 -51 12 -57 16
-76 58 -12 25 -25 56 -29 70 l-8 25 34 -28 c19 -15 63 -49 98 -75z m-1286
-302 c62 -23 67 -34 38 -85 -19 -33 -91 -74 -131 -74 -42 0 -133 51 -158 89
l-23 34 23 18 c66 50 148 56 251 18z m-1543 -40 c57 -17 63 -24 56 -63 -14
-72 -89 -113 -197 -105 -43 3 -66 11 -93 32 -30 22 -66 72 -66 90 0 7 68 47
98 57 32 10 153 4 202 -11z m944 -546 c3 -9 6 -98 6 -199 0 -165 -2 -184 -17
-190 -10 -4 -107 -10 -215 -13 l-197 -5 -5 24 c-3 13 -8 64 -11 114 -3 50 -10
104 -15 120 -4 17 -11 53 -14 81 l-6 52 64 11 c35 6 70 9 77 7 8 -3 59 -1 114
3 171 14 212 13 219 -5z m-849 -35 c22 -4 102 -9 177 -9 l136 0 11 -32 c6 -18
14 -81 19 -140 l8 -108 -283 0 c-183 0 -283 4 -283 10 0 6 -11 33 -24 61 -18
37 -27 76 -32 146 l-7 96 119 -8 c65 -3 137 -11 159 -16z m1423 4 l53 -6 -5
-111 c-2 -61 -8 -124 -11 -141 l-6 -30 -261 2 c-144 2 -263 5 -265 7 -2 2 -6
57 -9 122 -2 66 -7 129 -9 142 l-5 22 232 0 c128 0 257 -3 286 -7z"/>
<path d="M2445 947 c-30 -30 -35 -42 -35 -80 0 -37 5 -49 27 -67 22 -17 38
-20 96 -18 63 3 72 6 90 30 18 24 19 32 8 67 -14 48 -63 89 -115 98 -31 5 -40
1 -71 -30z"/>
<path d="M2943 1803 c-7 -3 -13 -10 -13 -17 0 -16 335 -23 345 -6 3 5 0 12 -7
14 -20 6 -311 14 -325 9z"/>
<path d="M1155 1645 c-63 -31 -114 -79 -167 -158 -22 -34 -61 -85 -85 -114
-45 -53 -56 -96 -27 -107 31 -12 134 28 186 72 15 12 21 9 55 -30 93 -105 102
-111 138 -84 18 13 19 18 6 97 -7 46 -16 99 -18 117 -4 24 0 42 15 62 19 25
20 34 11 91 -5 34 -12 66 -15 71 -9 14 -48 8 -99 -17z"/>
<path d="M2382 498 c-14 -14 -15 -85 -1 -148 5 -25 12 -62 16 -83 9 -58 30
-67 159 -67 62 0 119 3 128 6 13 5 16 27 16 133 0 177 6 171 -169 171 -93 0
-141 -4 -149 -12z m263 -148 c0 -70 -3 -95 -12 -94 -7 1 -49 2 -93 3 l-79 1
-10 38 c-5 20 -13 63 -17 95 l-6 58 108 -3 109 -3 0 -95z"/>
<path d="M2135 3903 c-16 -23 -17 -42 -11 -142 3 -63 11 -120 16 -125 7 -7
194 -11 302 -6 4 0 12 9 18 20 11 21 -4 184 -21 228 -15 37 -66 52 -183 52
-101 0 -104 -1 -121 -27z"/>
</g>
</svg>
